<svg width="30" height="33" viewBox="0 0 30 33" xmlns="http://www.w3.org/2000/svg">
    <g fill="none" fill-rule="evenodd">
        <path d="M0 0h30v33H0z"/>
        <path d="m9.446 3.796 14.239 3.045-2.996 16.951-.479-.542-1.486.722-1.132-1.282-1.486.722-1.131-1.281-1.486.721-1.132-1.281-1.486.722L9.74 21.01l-1.486.722-1.131-1.282-.677.329L9.446 3.796z" stroke="#212121" stroke-width="1.5" fill="#FFF"/>
        <path d="M18.25 8.45v17.287l-.583-.446-1.334 1.02L15 25.291l-1.333 1.02-1.334-1.02L11 26.31l-1.333-1.02-1.334 1.02L7 25.291l-1.333 1.02-1.334-1.02-.583.446V8.45h14.5z" stroke="#212121" stroke-width="1.5" fill="#FFF"/>
        <path fill="#FF8B45" d="M6.556 13.689h8.888v-1.1H6.556zM6.556 16.622h8.888v-1.1H6.556zM10 19.8h5v-1.1h-5z"/>
        <g transform="translate(14 15.4)" stroke="#212121" stroke-width="1.5">
            <path stroke-linecap="square" d="m10.083 11.092 2.334 2.566"/>
            <rect fill="#FFF" transform="matrix(-1 0 0 1 11.833 0)" width="11.833" height="13.017" rx="5.917"/>
        </g>
    </g>
</svg>
