<svg width="110" height="42" viewBox="0 0 110 42" xmlns="http://www.w3.org/2000/svg" xmlns:xlink="http://www.w3.org/1999/xlink">
    <defs>
        <linearGradient x1="97.435%" y1="50%" x2="-21.172%" y2="50%" id="pq7yxypxzb">
            <stop stop-color="#39F" offset="0%"/>
            <stop stop-color="#06F" offset="100%"/>
        </linearGradient>
        <linearGradient x1="76.088%" y1="12.872%" x2="35.643%" y2="79.821%" id="abgp5f5mye">
            <stop stop-color="#93F" offset="0%"/>
            <stop stop-color="#00ACFF" offset="100%"/>
        </linearGradient>
        <path d="M13.773 5.483C12.75 8.597 8.67 9.916 5.067 9.916c-1.246 0-2.44-.21-3.55-.594 0 0-1.444 1.444-1.497 5.023-.033 2.241 2.799 2.63 2.799 2.63.724.154 1.476.236 2.248.236 2.873 0 5.479-1.114 7.39-2.924 1.985-1.878 3.221-4.506 3.228-7.416h.014l-.013-.026c0-1.214-.516-4.073-3.417-6.84.37.616 2.396 2.767 1.504 5.478" id="nk262ykv2a"/>
        <path d="M12.443.007S0 9.71 0 17.977c0 4.485 2.918 8.303 7.003 9.747.443.156.9.284 1.368.384-1.982-.789-2.798-3.157-1.302-7.654C9.43 13.824 16.976 8.02 16.976 8.02L12.443.007z" id="ma59lo110d"/>
    </defs>
    <g fill="none" fill-rule="evenodd">
        <path d="M8.112 18.66h2.928c.456 0 .858.062 1.206.186s.638.296.87.516a2.1 2.1 0 0 1 .522.786c.116.304.174.632.174.984v.252c0 .352-.062.68-.186.984-.124.304-.304.57-.54.798a2.475 2.475 0 0 1-.87.534 3.357 3.357 0 0 1-1.176.192H8.952v3.42h-.84V18.66zm.84.756v3.72h1.884c.744 0 1.284-.16 1.62-.48.336-.32.504-.752.504-1.296v-.216c0-.512-.162-.928-.486-1.248-.324-.32-.826-.48-1.506-.48H8.952zm8.748 1.308c.872 0 1.548.256 2.028.768s.72 1.236.72 2.172v.804c0 .936-.24 1.66-.72 2.172-.48.512-1.156.768-2.028.768-.872 0-1.548-.256-2.028-.768s-.72-1.236-.72-2.172v-.804c0-.944.24-1.67.72-2.178s1.156-.762 2.028-.762zm0 5.964c.6 0 1.07-.186 1.41-.558.34-.372.51-.942.51-1.71v-.708c0-.768-.17-1.338-.51-1.71-.34-.372-.81-.558-1.41-.558-.6 0-1.07.186-1.41.558-.34.372-.51.942-.51 1.71v.708c0 .768.17 1.338.51 1.71.34.372.81.558 1.41.558zm5.412.624-1.764-6.468h.828l1.428 5.652 1.584-5.652h.924l1.62 5.652 1.392-5.652h.792l-1.728 6.468h-.948l-1.608-5.556-1.572 5.556h-.948zm12.12-3.66v-.108c0-.68-.156-1.2-.468-1.56-.312-.36-.752-.54-1.32-.54-.576 0-1.022.19-1.338.57-.316.38-.474.89-.474 1.53v.108h3.6zm.672 3.024a4.458 4.458 0 0 1-.96.504c-.384.152-.848.228-1.392.228-.864 0-1.536-.258-2.016-.774s-.72-1.246-.72-2.19v-.804c0-.92.234-1.636.702-2.148.468-.512 1.11-.768 1.926-.768.848 0 1.494.262 1.938.786.444.524.666 1.242.666 2.154v.672h-4.416v.108c0 .72.172 1.274.516 1.662.344.388.816.582 1.416.582.432 0 .812-.064 1.14-.192.328-.128.608-.276.84-.444l.36.624zm5.088-4.992a2.124 2.124 0 0 0-.78-.132c-.264 0-.504.052-.72.156-.216.104-.4.248-.552.432a1.924 1.924 0 0 0-.348.66c-.08.256-.12.536-.12.84v3.672h-.816v-6.468h.804v1.14c.072-.152.162-.304.27-.456a1.978 1.978 0 0 1 .924-.696c.196-.072.418-.108.666-.108.184 0 .35.01.498.03.148.02.29.054.426.102l-.252.828zm5.472 1.968v-.108c0-.68-.156-1.2-.468-1.56-.312-.36-.752-.54-1.32-.54-.576 0-1.022.19-1.338.57-.316.38-.474.89-.474 1.53v.108h3.6zm.672 3.024a4.458 4.458 0 0 1-.96.504c-.384.152-.848.228-1.392.228-.864 0-1.536-.258-2.016-.774s-.72-1.246-.72-2.19v-.804c0-.92.234-1.636.702-2.148.468-.512 1.11-.768 1.926-.768.848 0 1.494.262 1.938.786.444.524.666 1.242.666 2.154v.672h-4.416v.108c0 .72.172 1.274.516 1.662.344.388.816.582 1.416.582.432 0 .812-.064 1.14-.192.328-.128.608-.276.84-.444l.36.624zm5.976-.216H53.1a1.635 1.635 0 0 1-.816.72c-.36.152-.728.228-1.104.228a2.77 2.77 0 0 1-1.032-.186 2.346 2.346 0 0 1-.816-.54 2.43 2.43 0 0 1-.54-.87 3.357 3.357 0 0 1-.192-1.176v-1.14c0-.44.064-.832.192-1.176s.306-.634.534-.87c.228-.236.5-.416.816-.54a2.784 2.784 0 0 1 1.026-.186c.48 0 .88.092 1.2.276.32.184.564.396.732.636V18.24h.816v9.072h-.804v-.852zm-3.696-1.944c0 .696.164 1.232.492 1.608.328.376.764.564 1.308.564.264 0 .51-.034.738-.102.228-.068.426-.172.594-.312a1.52 1.52 0 0 0 .402-.528c.1-.212.15-.462.15-.75v-1.944c0-.192-.046-.382-.138-.57a1.759 1.759 0 0 0-.39-.516 1.99 1.99 0 0 0-1.356-.522c-.552 0-.99.19-1.314.57-.324.38-.486.914-.486 1.602v.9zm13.224 2.028v.768h-.804V18.24h.816v3.516a1.97 1.97 0 0 1 .804-.762c.344-.18.72-.27 1.128-.27.384 0 .734.062 1.05.186.316.124.586.304.81.54.224.236.398.526.522.87s.186.736.186 1.176v1.14c0 .44-.064.832-.192 1.176a2.475 2.475 0 0 1-.534.87c-.228.236-.5.416-.816.54a2.784 2.784 0 0 1-1.026.186c-.456 0-.848-.086-1.176-.258-.328-.172-.58-.374-.756-.606h-.012zm3.696-2.928c0-.696-.162-1.228-.486-1.596-.324-.368-.762-.552-1.314-.552a1.987 1.987 0 0 0-1.278.474c-.18.156-.326.344-.438.564-.112.22-.168.474-.168.762v1.896c0 .192.046.378.138.558.092.18.222.342.39.486.168.144.366.26.594.348.228.088.482.132.762.132.552 0 .99-.19 1.314-.57.324-.38.486-.914.486-1.602v-.9zm2.532-2.772 2.004 5.556 1.968-5.556h.84l-3.36 9.144-.696-.252.828-2.316-2.424-6.576h.84z" fill="#FFF" fill-rule="nonzero"/>
        <g transform="translate(86.553 17.132)">
            <mask id="r72b36j7zc" fill="#fff">
                <use xlink:href="#nk262ykv2a"/>
            </mask>
            <path d="M13.773 5.483C12.75 8.597 8.67 9.916 5.067 9.916c-1.246 0-2.44-.21-3.55-.594 0 0-1.444 1.444-1.497 5.023-.033 2.241 2.799 2.63 2.799 2.63.724.154 1.476.236 2.248.236 2.873 0 5.479-1.114 7.39-2.924 1.985-1.878 3.221-4.506 3.228-7.416h.014l-.013-.026c0-1.214-.516-4.073-3.417-6.84.37.616 2.396 2.767 1.504 5.478" fill="url(#pq7yxypxzb)" mask="url(#r72b36j7zc)"/>
        </g>
        <g transform="translate(81 6)">
            <mask id="1h1qbc27qf" fill="#fff">
                <use xlink:href="#ma59lo110d"/>
            </mask>
            <path d="M12.443.007S0 9.71 0 17.977c0 4.485 2.918 8.303 7.003 9.747.443.156.9.284 1.368.384-1.982-.789-2.798-3.157-1.302-7.654C9.43 13.824 16.976 8.02 16.976 8.02L12.443.007z" fill="url(#abgp5f5mye)" mask="url(#1h1qbc27qf)"/>
        </g>
        <path d="M0 0h110v42H0z"/>
    </g>
</svg>
